<svg xmlns="http://www.w3.org/2000/svg" viewBox="0 0 24 24" role="img" aria-label="Couchbase"><path fill="#EA2328" d="M12 2C6.477 2 2 6.477 2 12s4.477 10 10 10 10-4.477 10-10S17.523 2 12 2zm6.061 12.139c0 .733-.42 1.379-1.25 1.524-1.436.252-4.453.398-4.811.398-.358 0-3.375-.146-4.811-.398-.83-.145-1.25-.791-1.25-1.524v-3.622c0-.733.566-1.413 1.25-1.524.424-.07 1.418-.139 2.106-.139.262 0 .475.198.475.486v2.711l2.23-.045 2.23.045V9.34c0-.288.213-.486.475-.486.688 0 1.682.07 2.106.139.684.111 1.25.791 1.25 1.524v3.622z"/></svg>
